<svg xmlns="http://www.w3.org/2000/svg" width="70.582" height="79.34" viewBox="0 0 70.582 79.34">
  <g id="logo" transform="translate(-1763.281 5104.931)">
    <path id="round-path-1" d="M161.759,43.586a36.862,36.862,0,0,1,20.332,13.9,34.355,34.355,0,0,1,7.033,22.776,32.645,32.645,0,0,1-5.692,17.214c-7.906,11.443-21.311,16.3-33.885,12.484a26.463,26.463,0,0,1-16.791-14.134,23.094,23.094,0,0,1-1.677-16.537C134.322,67.877,145.2,60,157.407,64.1c6.634,2.231,10.539,7.359,10.425,14.66-.11,7.126-4.833,12.374-11.285,11.931a2.825,2.825,0,0,1-2.939-2.96c.045-1.763,1.134-3.021,2.956-2.8,4.255.522,6.761-4.386,5.287-8.8-2.32-6.954-10.2-9.219-16.657-5.96-5.067,2.554-7.744,6.806-8.8,12.288-1.492,7.755,3.094,15.781,9.391,19.593,7.146,4.31,14.756,4.469,22.222,1.079a25.453,25.453,0,0,0,13.244-14.072c7.627-18.476-6.029-38.175-25.027-40.842A36.494,36.494,0,0,0,143.4,48.7a2.887,2.887,0,0,1-3.094-1.1,2.6,2.6,0,0,1-.127-2.966,3.1,3.1,0,0,1,2.406-1.53,39.371,39.371,0,0,1,19.177.488Z" transform="translate(1643.746 -5147.074)" fill="#02638f"/>
    <path id="round-path-2" d="M106.044,96.45a28.934,28.934,0,0,0,2.547,22.515,30.5,30.5,0,0,0,13.021,12.491c9.04,4.634,18.342,4.884,27.808,1.406.653-.241,1.282-.56,1.949-.76a2.713,2.713,0,0,1,3.571,1.595,2.825,2.825,0,0,1-1.437,3.781,39.388,39.388,0,0,1-20.05,3.4,42.608,42.608,0,0,1-9.7-1.949,36.78,36.78,0,0,1-14.5-9.343,36.092,36.092,0,0,1-9.57-18.531,33.4,33.4,0,0,1-.234-11.209,32.575,32.575,0,0,1,14.519-22.982,29.083,29.083,0,0,1,35.831,2.819,27.227,27.227,0,0,1,4.75,6.16,2.822,2.822,0,0,1-.787,3.74,2.784,2.784,0,0,1-3.9-.536c-.756-.949-1.341-2.038-2.093-2.994a21.119,21.119,0,0,0-10.59-7.27c-13.062-4.125-24.457,4.059-28.74,12A25.234,25.234,0,0,0,106.044,96.45Z" transform="translate(1664.19 -5166.658)" fill="#02638f"/>
    <path id="mouth" d="M173.767,188.052a13.442,13.442,0,0,1-6.613-5.792,4.056,4.056,0,0,1-.7-2.121,2.593,2.593,0,0,1,1.719-2.75,2.516,2.516,0,0,1,3.245.918c3.2,5.476,9.425,7.1,15.623,4.884a14.951,14.951,0,0,0,6.875-5.335c1.413-1.887,2.922-2.045,4.365-.67a2.741,2.741,0,0,1,.344,3.888c-5.263,6.906-12.123,9.9-20.786,8.38A30.142,30.142,0,0,1,173.767,188.052Z" transform="translate(1619.986 -5235.103)" fill="#02638f"/>
    <circle id="circle-1-right" cx="3.262" cy="3.262" r="3.262" transform="translate(1772.967 -5100.759)" fill="#02638f"/>
    <circle id="eye-right" cx="3.427" cy="3.427" r="3.427" transform="translate(1816.116 -5070.511)" fill="#02638f"/>
    <circle id="eye-left" cx="3.427" cy="3.427" r="3.427" transform="translate(1784.95 -5070.253)" fill="#02638f"/>
    <circle id="circle-1-left" cx="1.966" cy="1.966" r="1.966" transform="translate(1766.831 -5092.977)" fill="#02638f"/>
    <circle id="circle-2-left" cx="2.781" cy="2.781" r="2.781" transform="translate(1822.451 -5039.417)" fill="#02638f"/>
    <circle id="circle-2-right" cx="1.966" cy="1.966" r="1.966" transform="translate(1829.931 -5045.91)" fill="#02638f"/>
  </g>
</svg>
